<svg xmlns="http://www.w3.org/2000/svg" width="2400" height="1350" viewBox="0 0 2400 1350" role="img" aria-label="Classic library with floating verified seals">
  <defs>
    <linearGradient id="g0" x1="0" y1="0" x2="1" y2="1">
      <stop offset="0" stop-color="#05070c"/>
      <stop offset="1" stop-color="#0b1020"/>
    </linearGradient>
    <radialGradient id="goldGlow" cx="30%" cy="24%" r="70%">
      <stop offset="0" stop-color="rgba(212,175,55,.26)"/>
      <stop offset="0.55" stop-color="rgba(212,175,55,.08)"/>
      <stop offset="1" stop-color="rgba(212,175,55,0)"/>
    </radialGradient>
    <radialGradient id="blueGlow" cx="80%" cy="18%" r="70%">
      <stop offset="0" stop-color="rgba(150,220,180,.10)"/>
      <stop offset="1" stop-color="rgba(120,180,255,0)"/>
    </radialGradient>
    <filter id="blur" x="-20%" y="-20%" width="140%" height="140%">
      <feGaussianBlur stdDeviation="8"/>
    </filter>
  </defs>

  <rect width="2400" height="1350" fill="url(#g0)"/>
  <rect width="2400" height="1350" fill="url(#goldGlow)"/>
  <rect width="2400" height="1350" fill="url(#blueGlow)"/>

  <g opacity="0.8"><path d="M 1631.2 935.0 Q 1304.3 762.1 263.8 463.2" stroke="rgba(243,210,122,0.126)" stroke-width="1.79" fill="none"/><path d="M 2080.2 954.3 Q 1743.9 548.3 1904.2 406.7" stroke="rgba(243,210,122,0.118)" stroke-width="1.89" fill="none"/><path d="M 1943.3 1256.0 Q 1241.1 1111.5 556.4 865.6" stroke="rgba(243,210,122,0.137)" stroke-width="1.64" fill="none"/><path d="M 2009.0 -23.1 Q 1840.8 566.9 2338.8 933.2" stroke="rgba(243,210,122,0.104)" stroke-width="1.27" fill="none"/><path d="M 2268.0 232.4 Q 2397.6 935.3 1772.1 1205.5" stroke="rgba(243,210,122,0.088)" stroke-width="1.31" fill="none"/><path d="M 217.6 402.2 Q 64.4 243.0 604.6 149.6" stroke="rgba(243,210,122,0.083)" stroke-width="1.76" fill="none"/><path d="M 23.3 1105.7 Q 647.0 720.7 526.9 423.6" stroke="rgba(243,210,122,0.069)" stroke-width="1.52" fill="none"/><path d="M 1698.6 -48.9 Q 1409.6 642.0 1583.3 1142.8" stroke="rgba(243,210,122,0.123)" stroke-width="1.64" fill="none"/><path d="M 897.0 707.7 Q 272.7 455.4 114.6 438.3" stroke="rgba(243,210,122,0.101)" stroke-width="1.85" fill="none"/><path d="M 1108.8 1111.8 Q 1664.9 865.6 2422.5 861.8" stroke="rgba(243,210,122,0.095)" stroke-width="1.23" fill="none"/><path d="M 547.4 267.8 Q 735.9 217.0 957.1 313.8" stroke="rgba(243,210,122,0.134)" stroke-width="1.81" fill="none"/><path d="M 2507.9 746.3 Q 2811.8 1282.2 2406.7 1393.1" stroke="rgba(243,210,122,0.110)" stroke-width="1.58" fill="none"/><path d="M 2258.4 802.8 Q 2203.2 1110.2 1846.2 1130.7" stroke="rgba(243,210,122,0.084)" stroke-width="1.92" fill="none"/><path d="M 1769.8 -98.9 Q 1206.0 657.0 5.4 1095.2" stroke="rgba(243,210,122,0.102)" stroke-width="1.63" fill="none"/></g>
  <g><circle cx="822.5" cy="170.8" r="6.0" fill="rgba(212,175,55,0.085)"/><circle cx="1448.1" cy="951.1" r="5.7" fill="rgba(212,175,55,0.107)"/><circle cx="1309.8" cy="352.7" r="3.4" fill="rgba(212,175,55,0.112)"/><circle cx="1360.8" cy="1101.9" r="5.5" fill="rgba(212,175,55,0.076)"/><circle cx="275.4" cy="440.1" r="5.9" fill="rgba(212,175,55,0.077)"/><circle cx="2389.9" cy="891.0" r="5.4" fill="rgba(212,175,55,0.104)"/><circle cx="890.6" cy="748.8" r="4.0" fill="rgba(212,175,55,0.071)"/><circle cx="2290.2" cy="1189.8" r="5.9" fill="rgba(212,175,55,0.099)"/><circle cx="2017.3" cy="987.2" r="4.5" fill="rgba(212,175,55,0.108)"/><circle cx="2397.2" cy="1215.8" r="3.9" fill="rgba(212,175,55,0.128)"/><circle cx="730.6" cy="1161.7" r="2.9" fill="rgba(212,175,55,0.076)"/><circle cx="2344.5" cy="1007.6" r="2.2" fill="rgba(212,175,55,0.115)"/><circle cx="2079.0" cy="421.6" r="2.8" fill="rgba(212,175,55,0.103)"/><circle cx="1728.7" cy="182.8" r="4.4" fill="rgba(212,175,55,0.078)"/><circle cx="1924.2" cy="641.9" r="4.2" fill="rgba(212,175,55,0.071)"/><circle cx="826.6" cy="675.6" r="5.8" fill="rgba(212,175,55,0.076)"/><circle cx="362.8" cy="1019.8" r="2.3" fill="rgba(212,175,55,0.094)"/><circle cx="2157.2" cy="1145.2" r="4.2" fill="rgba(212,175,55,0.137)"/><circle cx="1826.7" cy="1319.3" r="5.8" fill="rgba(212,175,55,0.075)"/><circle cx="2289.5" cy="997.8" r="5.6" fill="rgba(212,175,55,0.098)"/><circle cx="2335.0" cy="923.7" r="2.4" fill="rgba(212,175,55,0.118)"/><circle cx="1392.7" cy="733.1" r="4.7" fill="rgba(212,175,55,0.128)"/><circle cx="1399.9" cy="897.2" r="4.1" fill="rgba(212,175,55,0.124)"/><circle cx="467.9" cy="885.7" r="4.0" fill="rgba(212,175,55,0.110)"/><circle cx="2234.0" cy="1306.6" r="2.7" fill="rgba(212,175,55,0.112)"/><circle cx="2173.6" cy="626.5" r="3.3" fill="rgba(212,175,55,0.122)"/><circle cx="1089.7" cy="1111.8" r="4.0" fill="rgba(212,175,55,0.070)"/><circle cx="1667.9" cy="602.6" r="4.7" fill="rgba(212,175,55,0.064)"/><circle cx="916.6" cy="59.3" r="4.3" fill="rgba(212,175,55,0.109)"/><circle cx="261.4" cy="98.4" r="5.5" fill="rgba(212,175,55,0.088)"/><circle cx="859.2" cy="1257.3" r="5.0" fill="rgba(212,175,55,0.130)"/><circle cx="2334.6" cy="569.4" r="3.4" fill="rgba(212,175,55,0.069)"/><circle cx="2155.2" cy="506.3" r="3.9" fill="rgba(212,175,55,0.097)"/><circle cx="2162.3" cy="698.3" r="2.9" fill="rgba(212,175,55,0.056)"/><circle cx="413.0" cy="113.4" r="2.5" fill="rgba(212,175,55,0.125)"/><circle cx="1269.9" cy="55.0" r="3.0" fill="rgba(212,175,55,0.092)"/><circle cx="1313.8" cy="1168.9" r="2.5" fill="rgba(212,175,55,0.101)"/><circle cx="918.6" cy="1155.9" r="2.6" fill="rgba(212,175,55,0.128)"/></g>

  <g filter="url(#blur)" opacity="0.9">
    <circle cx="1752.0" cy="621.0" r="210" fill="rgba(255,255,255,.04)"/>
  </g>

  <g><circle cx="1752.0" cy="621.0" r="160" fill="none" stroke="rgba(212,175,55,0.180)" stroke-width="1.2"/><circle cx="1752.0" cy="621.0" r="215" fill="none" stroke="rgba(212,175,55,0.150)" stroke-width="1.2"/><circle cx="1752.0" cy="621.0" r="270" fill="none" stroke="rgba(212,175,55,0.120)" stroke-width="1.2"/><circle cx="1752.0" cy="621.0" r="325" fill="none" stroke="rgba(212,175,55,0.090)" stroke-width="1.2"/></g>

  <g>
    <rect x="1562.0" y="555.0" width="380" height="132" rx="26" fill="rgba(255,255,255,.05)" stroke="rgba(255,255,255,.10)"/>
    <text x="1752.0" y="613.0" text-anchor="middle" font-family="ui-sans-serif,system-ui" font-size="50" fill="rgba(245,247,255,.92)" letter-spacing="2">W3</text>
    <text x="1752.0" y="655.0" text-anchor="middle" font-family="ui-sans-serif,system-ui" font-size="22" fill="rgba(245,247,255,.60)" letter-spacing="1">w3.education</text>
  </g>

  <g opacity="0.9">
    <circle cx="432.0" cy="1053.0" r="280" fill="rgba(212,175,55,.06)"/>
    <circle cx="432.0" cy="1053.0" r="279" fill="none" stroke="rgba(255,255,255,.06)"/>
  </g>
</svg>